# xmcd
#
# Track frame offsets: 
#        150
#        12737
#        22728
#        34539
#        44678
#        57776
#        69494
#        78624
#        91716
#        105105
#        114831
#        124350
#        137170
#        149864
#        161356
#        171794
#        185083
#        196794
#        208816
#        220513
#        230951
#        241470
#        254158
#        267707
#        278589
#        289289
#
# Disc length: 4017 seconds
#
# Revision: 1
# Processed by: cddbd v1.5.2PL0 Copyright (c) Steve Scherf et al.
# Submitted via: ExactAudioCopy v1.0b3
#
DISCID=8a0faf1a
DTITLE=Various Artist - Vocal Groups: Classic Doo-Wop Remastered (Dis
DTITLE=c 4)
DYEAR=2006
DGENRE=Oldies
TTITLE0=The Robins - Smokey Joe's Cafe
TTITLE1=The '5' Royals - You Didn't Learn It At Home
TTITLE2=The Spiders - Witchcraft
TTITLE3=The Danderliers - Chop Chop Bop
TTITLE4=The Marigolds - Rollin' Stone
TTITLE5=The Turbans - No No Cherry
TTITLE6=The Miracles - My Angel
TTITLE7=Hollywood Flames - I'm Leavin'
TTITLE8=The Cardinals - The Door is Still Open
TTITLE9=Otis Williams' New Group - That's Your Mistake
TTITLE10=The Thunderbirds - Baby Let's Play House
TTITLE11=The Peacheroos - Be Bop Baby
TTITLE12=The Pyramids - And I Need You
TTITLE13=The Lamplighters - Hug a Little, Kiss a Little
TTITLE14=Grady Chapman and The Suedes - I Need You So
TTITLE15=The Turbans - When You Dance
TTITLE16=The Eldorados - At My Front Door
TTITLE17=The Hearts - Lonely Nights
TTITLE18=The Morocos - Red Hots and Chilly Mac
TTITLE19=The Dreamers - Bye Bye
TTITLE20=The Nutmegs - A Story Untold
TTITLE21=The Charioteers - Don't Play No Mambo
TTITLE22=The Clicks - Peace and Contentment
TTITLE23=Kansas City Tomcats - Nobody Knows
TTITLE24=The Quailtones - Tears of Love
TTITLE25=The Platters - The Great Pretender
EXTD=YEAR: 2006
EXTT0=
EXTT1=
EXTT2=
EXTT3=
EXTT4=
EXTT5=
EXTT6=
EXTT7=
EXTT8=
EXTT9=
EXTT10=
EXTT11=
EXTT12=
EXTT13=
EXTT14=
EXTT15=
EXTT16=
EXTT17=
EXTT18=
EXTT19=
EXTT20=
EXTT21=
EXTT22=
EXTT23=
EXTT24=
EXTT25=
PLAYORDER=
